# xmcd
#
# Track frame offsets:
#	180
#	21044
#	39044
#	59099
#	77175
#	97604
#	118265
#	133735
#	159190
#	187062
#	209418
#	227518
#	250567
#	270277
#	291479
#
# Disc length: 4181 seconds
#
# Revision: 1
# Processed by: cddbd v1.5.1PL2 Copyright (c) Steve Scherf et al.
# Submitted via: audiograbber 1.83.01
#
DISCID=c610530f
DTITLE=Jan Pietrzak - Gra w milosc
DYEAR=1998
DGENRE=
TTITLE0=Miodowy miesiac
TTITLE1=Klamiesz
TTITLE2=Kochana byc
TTITLE3=Aleja milosci
TTITLE4=Nadzieja
TTITLE5=Maki
TTITLE6=Liscie z topol
TTITLE7=Odpocznij
TTITLE8=Gdzie ci mezczyzni
TTITLE9=Dreszcze zachety
TTITLE10=Nareszcie...
TTITLE11=Tylko jeden
TTITLE12=Przybadz i badz
TTITLE13=Gra w milosc
TTITLE14=Toast
EXTD=
EXTT0=
EXTT1=
EXTT2=
EXTT3=
EXTT4=
EXTT5=
EXTT6=
EXTT7=
EXTT8=
EXTT9=
EXTT10=
EXTT11=
EXTT12=
EXTT13=
EXTT14=
PLAYORDER=
